# xmcd CD database file
#
# Track frame offsets:
#	150
#	22217
#	43605
#	63307
#	83390
#	104367
#	123000
#	144905
#	164615
#	186685
#
# Disc length: 2761 seconds
#
# Revision: 2
# Processed by: cddbd v1.5PL3 Copyright (c) Steve Scherf et al.
# Submitted via: CDex 1.50
#
DISCID=840ac70a
DTITLE=TUBE - BOYS ON THE BEACH
DYEAR=1986
DGENRE=JPop
TTITLE0=BOYS ON THE BEACH
TTITLE1=BECAUSE I LOVE YOU
TTITLE2=CATCH THE SEA WIND
TTITLE3=MORNING CALL FROM THE BEACH
TTITLE4=SHINE ON
TTITLE5=DEAR MY FRIEND
TTITLE6=SAY GOOD BYE TONITE
TTITLE7=SURFIN’ROAD
TTITLE8=GOOD NIGHT BABY (extra remixed version)
TTITLE9=LAST PAGE
EXTD=YEAR: 1986
EXTT0=
EXTT1=
EXTT2=
EXTT3=
EXTT4=
EXTT5=
EXTT6=
EXTT7=
EXTT8=
EXTT9=
PLAYORDER=
